Results
version=1
nRows=10
nColumns=27
inDegrees=yes
endheader
time	r_x	r_y	r_z	t_x	t_y	t_z	sternoclavicular_r2	sternoclavicular_r3	unrotscap_r3	unrotscap_r2	acromioclavicular_r2	acromioclavicular_r3	acromioclavicular_r1	unrothum_r1	unrothum_r3	unrothum_r2	elv_angle	shoulder_elv	shoulder1_r2	shoulder_rot	elbow_flexion	pro_sup	deviation	flexion	wrist_hand_r1	wrist_hand_r3
      0.00000000	     90.00006576	      0.00006285	     10.00002058	     -0.39998418	      0.33993116	      0.29282035	     -3.40305100	      1.44130905	     -1.44143998	      3.40309478	     -0.68905647	      5.56869986	      2.50314601	     -2.50312152	     -5.56873418	      0.68905746	    -32.11227387	     14.06236275	     32.11227371	     -7.98249040	    102.92858191	     38.11566200	     -0.00001397	     -0.00000748	     -0.00000639	     -0.00000763
      0.00500000	     90.00009481	      0.00004734	     10.00007516	     -0.40007782	      0.33982509	      0.29297506	     -3.40325787	      1.44135590	     -1.44153186	      3.40325209	     -0.68912085	      5.56901459	      2.50331934	     -2.50321168	     -5.56900347	      0.68905984	    -32.11201391	     14.06308234	     32.11203124	     -7.98460844	    102.93089060	     38.11503215	      0.00008261	     -0.00000738	      0.00001381	     -0.00001151
      0.01000000	     90.00034481	      0.00019319	     10.00021968	     -0.40022680	      0.33985556	      0.29265459	     -3.40282146	      1.44093738	     -1.44157131	      3.40309725	     -0.68886944	      5.56846111	      2.50330328	     -2.50276782	     -5.56843820	      0.68918380	    -32.11220812	     14.06161880	     32.11200170	     -7.98269676	    102.93060654	     38.11520491	      0.00009184	     -0.00000399	     -0.00014243	     -0.00000653
      0.01500000	     90.00007257	      0.00008562	     10.00004559	     -0.40011494	      0.33988285	      0.29291660	     -3.40283139	      1.44120635	     -1.44138124	      3.40288373	     -0.68901952	      5.56836113	      2.50303319	     -2.50292580	     -5.56838855	      0.68900114	    -32.11144866	     14.06039402	     32.11183968	     -7.98315846	    102.93359965	     38.11469474	      0.00002183	     -0.00000236	     -0.00007182	     -0.00000851
      0.02000000	     90.00009959	      0.00016924	     10.00023692	     -0.40023684	      0.33984447	      0.29263525	     -3.40229985	      1.44093546	     -1.44123569	      3.40248541	     -0.68887150	      5.56770097	      2.50285790	     -2.50242388	     -5.56749742	      0.68896341	    -32.11153390	     14.05945379	     32.11162782	     -7.98158800	    102.93347146	     38.11483202	      0.00004596	     -0.00000746	      0.00008214	     -0.00001075
      0.02500000	     90.00012519	      0.00001506	     10.00003213	     -0.40000629	      0.33996982	      0.29283473	     -3.40198687	      1.44079957	     -1.44096811	      3.40199878	     -0.68881927	      5.56688708	      2.50232860	     -2.50230705	     -5.56691040	      0.68884179	    -32.11116709	     14.05765991	     32.11123914	     -7.98020451	    102.93480260	     38.11485508	     -0.00007453	     -0.00000355	     -0.00024409	     -0.00000590
      0.03000000	     90.00001959	      0.00003789	     10.00006746	     -0.40000632	      0.33996739	      0.29283738	     -3.40193936	      1.44087378	     -1.44092217	      3.40195219	     -0.68885105	      5.56690917	      2.50231757	     -2.50228014	     -5.56682095	      0.68879801	    -32.11124164	     14.05772816	     32.11115171	     -7.98023161	    102.93483719	     38.11484699	     -0.00016608	     -0.00000517	     -0.00012688	     -0.00000772
      0.03500000	     90.00020808	     -0.00007380	     10.00020715	     -0.39975564	      0.34038510	      0.29252881	     -3.40047515	      1.44000187	     -1.44040863	      3.40017130	     -0.68866990	      5.56417173	      2.50129429	     -2.50092375	     -5.56423585	      0.68831991	    -32.11129928	     14.05087883	     32.11113850	     -7.98046025	    102.93531718	     38.11482131	      0.00016388	     -0.00000756	      0.00023783	     -0.00001092
      0.04000000	     90.00022371	     -0.00006953	     10.00021027	     -0.39975683	      0.34038364	      0.29252892	     -3.40043473	      1.43996899	     -1.44040539	      3.40013202	     -0.68866006	      5.56409870	      2.50127596	     -2.50088495	     -5.56417827	      0.68831368	    -32.11127501	     14.05062273	     32.11112329	     -7.98077064	    102.93548728	     38.11478877	     -0.00007914	     -0.00000683	      0.00020368	     -0.00001000
      0.04500000	     90.00004479	      0.00010514	     10.00003361	     -0.39988723	      0.33991142	      0.29293095	     -3.40110117	      1.44051631	     -1.44061335	      3.40123866	     -0.68862808	      5.56562088	      2.50175079	     -2.50171382	     -5.56557414	      0.68870873	    -32.11061145	     14.05448873	     32.11064990	     -7.98362566	    102.93722523	     38.11447305	     -0.00001670	     -0.00000639	     -0.00003799	     -0.00000932
